PathFileType	4	(X/Y/Z)	/Users/niels/Desktop/University/Third Semester/Perception and Action/Exam/Gymnastics Motion Tracking/Code for Gym Tracking/Analyzed Data/Webcam_Backflip/id1_4_trajectory_Sports2D/id1_4_trajectory_Sports2D_px_person00.trc
DataRate	CameraRate	NumFrames	NumMarkers	Units	OrigDataRate	OrigDataStartFrame	OrigNumFrames
29.874476987447697	29.874476987447697	12	22	m	29.874476987447697	119	239
Frame#	Time	Hip			RHip			RKnee			RAnkle			RBigToe			RSmallToe			RHeel			LHip			LKnee			LAnkle			LBigToe			LSmallToe			LHeel			Neck			Head			Nose			RShoulder			RElbow			RWrist			LShoulder			LElbow			LWrist		
		X1	Y1	Z1	X2	Y2	Z2	X3	Y3	Z3	X4	Y4	Z4	X5	Y5	Z5	X6	Y6	Z6	X7	Y7	Z7	X8	Y8	Z8	X9	Y9	Z9	X10	Y10	Z10	X11	Y11	Z11	X12	Y12	Z12	X13	Y13	Z13	X14	Y14	Z14	X15	Y15	Z15	X16	Y16	Z16	X17	Y17	Z17	X18	Y18	Z18	X19	Y19	Z19	X20	Y20	Z20	X21	Y21	Z21	X22	Y22	Z22
119	3.9833333333333334	0.8236555025736774	-0.6014409357198863	0.0	0.8146816808282331	-0.6001329114003126	0.0	0.8151702853442072	-0.7062917814122208	0.0	0.8080094219661982	-0.8197976399284156	0.0	0.8581926034315516	-0.8302739119198246	0.0	0.848003150785233	-0.8353656464898086	0.0	0.796933030341819	-0.8379778985684949	0.0	0.8323788605433259	-0.601140496492379	0.0	0.832679549451864	-0.706021412116781	0.0	0.8270527748691153	-0.8131611434846526	0.0	0.8724040645329946	-0.825745145254658	0.0	0.8674740334422085	-0.8228065993370257	0.0	0.8211969475125664	-0.8293933907031625	0.0	0.8334282349966502	-0.43401138632506897	0.0	0.8744311047846867	-0.37077834881978444	0.0	0.8776624676435167	-0.4187743219370286	0.0	0.8090158663022111	-0.4490773443827183	0.0	0.7736103056387533	-0.5176163650267297	0.0	0.8026577132359675	-0.5910893336633659	0.0	0.8328796181066255	-0.45404205279096593	0.0	0.8066616034817939	-0.521004878226631	0.0	0.8293625119695986	-0.5892117941970952	0.0
120	4.016806722689076	0.8232666449512536	-0.6101314821982133	0.0	0.8143655127615691	-0.6090865221963423	0.0	0.8151715793284675	-0.7148914057949277	0.0	0.8081792847107375	-0.8275682395729415	0.0	0.8590883982330766	-0.8376315411059159	0.0	0.8486517100695832	-0.8418858736273651	0.0	0.7971201221868894	-0.8448863369531298	0.0	0.8319081837979628	-0.6100904181254739	0.0	0.8328723849684305	-0.7143886685756314	0.0	0.8273270725386609	-0.8217465684649273	0.0	0.8729910919752182	-0.8335104347330011	0.0	0.8679802319738591	-0.8304264631938305	0.0	0.8207494202841891	-0.8373550503261924	0.0	0.832624396670087	-0.44255301955711956	0.0	0.8708531333967788	-0.37870889636787053	0.0	0.8762280591434378	-0.4265578683864645	0.0	0.809056030758512	-0.4580285089120267	0.0	0.7734707342709192	-0.5254539481823339	0.0	0.8050845824627516	-0.5975059608763463	0.0	0.8315773690340759	-0.46258552254839663	0.0	0.8057883443331288	-0.5289103631520439	0.0	0.8299970972830021	-0.5956247691685823	0.0
121	4.050280112044818	0.8226689123782666	-0.6173174426485238	0.0	0.8138419022768044	-0.6165677466200418	0.0	0.8149754395725666	-0.7222879791697833	0.0	0.8082334076750578	-0.8339783510970011	0.0	0.8600916916708331	-0.8438400875966766	0.0	0.8491525107914047	-0.847319055436959	0.0	0.7972365250527659	-0.8502227637776535	0.0	0.8312085091625464	-0.6173983858479211	0.0	0.8328732361480976	-0.7214431864823813	0.0	0.827555213916642	-0.8289314435243986	0.0	0.8735080371591113	-0.840089418655238	0.0	0.8684560682905947	-0.8368762354695589	0.0	0.8205276871871386	-0.8438487087174396	0.0	0.8320235282889279	-0.45001736921203767	0.0	0.8677185117211675	-0.38576370949232824	0.0	0.8750887190673492	-0.43321350870003167	0.0	0.8092540571954108	-0.4658951816861904	0.0	0.7739776862774993	-0.5323725800708664	0.0	0.8086520536677703	-0.6024471099351655	0.0	0.8304856087092638	-0.47008455357348716	0.0	0.8052226980548203	-0.5360044357328062	0.0	0.8311405286454118	-0.6007898421540977	0.0
122	4.08375350140056	0.8218964912060458	-0.6223663403436506	0.0	0.8131259265030799	-0.6218749538030599	0.0	0.8145607641341004	-0.7277936204433408	0.0	0.8081079764320611	-0.8385597563441886	0.0	0.8608747085311547	-0.8483311767929419	0.0	0.8492886611101506	-0.8512497140016021	0.0	0.7971752998850977	-0.8537366076287296	0.0	0.830331221606577	-0.6223678236291083	0.0	0.8327178263902683	-0.7265711136226581	0.0	0.8277005637738839	-0.8340697289658947	0.0	0.8738461100681738	-0.8448232899221323	0.0	0.8687638600087394	-0.8415386725121051	0.0	0.8204890318874389	-0.8483410109933941	0.0	0.8316026759946822	-0.4556857811748108	0.0	0.865235508424622	-0.39120847882306065	0.0	0.8742465173330026	-0.4381075385889393	0.0	0.8095260579021336	-0.4719268045653975	0.0	0.7751976626852864	-0.5376855555881433	0.0	0.8134109033768728	-0.6050362869093633	0.0	0.8297041516360468	-0.47584011450959013	0.0	0.8052581220748617	-0.5416844352241941	0.0	0.8328971346551133	-0.6042854391017688	0.0
123	4.117226890756302	0.8209990378789339	-0.624881183894633	0.0	0.8123255521323426	-0.6245469512018241	0.0	0.8139695267015347	-0.7308903602893067	0.0	0.8077535289580468	-0.8411087836728148	0.0	0.8611982261780862	-0.8507659581239575	0.0	0.8490828290333702	-0.853445368004201	0.0	0.796886543857954	-0.8554759917603888	0.0	0.8293833235890717	-0.6246057075009552	0.0	0.8325511963301176	-0.7293260816262247	0.0	0.8277920083056288	-0.8368298549147012	0.0	0.8739701131356162	-0.847317199756455	0.0	0.8688721832437648	-0.84405134172039	0.0	0.8205738685937447	-0.8506167014422215	0.0	0.8313737903107428	-0.45901495967002254	0.0	0.8635513051457788	-0.3944613526312227	0.0	0.8736926910284507	-0.4407835576824298	0.0	0.8098191941013774	-0.47554238396467224	0.0	0.7770416004529739	-0.5407967044020604	0.0	0.8191053184808788	-0.6046658341236556	0.0	0.8292910265506436	-0.4793181789819528	0.0	0.8060444997528406	-0.54545715386357	0.0	0.835327529770655	-0.6057899902023173	0.0
124	4.150700280112044	0.820031112318173	-0.6247370825600815	0.0	0.8115939116095244	-0.6244001318650888	0.0	0.8133000051726405	-0.7312693696758105	0.0	0.8071495186329318	-0.8415966846030025	0.0	0.8609585405217005	-0.8509937863296203	0.0	0.8486861266397233	-0.8537949880053408	0.0	0.7963757337796086	-0.8555885636654422	0.0	0.8284755288018417	-0.6240474745117798	0.0	0.8325576315032372	-0.729427234102656	0.0	0.8278987685737781	-0.8371187762259741	0.0	0.8739073011704418	-0.8474335472125213	0.0	0.8688209891994512	-0.8442767421276602	0.0	0.8207212228247114	-0.8506493542574082	0.0	0.8313612046450425	-0.4596856585379283	0.0	0.8627154782285877	-0.39513860409817675	0.0	0.8734442761949386	-0.4409521651139471	0.0	0.8101703482968989	-0.4763796547987201	0.0	0.779302992751953	-0.5412904148333371	0.0	0.8252447709427164	-0.6012058962085278	0.0	0.8292378900506346	-0.4801569802351523	0.0	0.8074446172669244	-0.5469340910686932	0.0	0.8382949411078573	-0.6052094088584471	0.0
125	4.184173669467787	0.8190462700918941	-0.6220585283026774	0.0	0.8110444795057464	-0.6215220505290213	0.0	0.8126778797780686	-0.7288948171214207	0.0	0.8063292825500402	-0.8401132652100928	0.0	0.8600858684225543	-0.849027245362304	0.0	0.8480547026588562	-0.8522803962819638	0.0	0.7957026737388049	-0.8541680365002426	0.0	0.8276710116474687	-0.620888166498258	0.0	0.8328771536148843	-0.7267929246986576	0.0	0.8280695603084847	-0.834987544437354	0.0	0.873703229755964	-0.8452094471378019	0.0	0.8686215457071365	-0.8422204715376742	0.0	0.8208930661309244	-0.8484911116592404	0.0	0.8315446946082549	-0.457663983957535	0.0	0.8627182922686837	-0.393126711523619	0.0	0.8735295673168578	-0.43857115375207945	0.0	0.8106869197744916	-0.474328062898459	0.0	0.7817117534612174	-0.539025930184021	0.0	0.8312498256792571	-0.5950137894335922	0.0	0.8294509936593281	-0.47823134719737975	0.0	0.8090758950365108	-0.5459033193689066	0.0	0.8414510913100937	-0.6027367716785804	0.0
126	4.2176470588235295	0.8180849701020598	-0.6171549619361089	0.0	0.8106952232500889	-0.6162491754748212	0.0	0.812226054294568	-0.7240516327439009	0.0	0.8054000385209532	-0.8368306589092243	0.0	0.8586552708139549	-0.845042007641474	0.0	0.8470648079117734	-0.8489946677933734	0.0	0.7949992712977828	-0.8512272281097804	0.0	0.8269587031179889	-0.6154953707847725	0.0	0.8335503597226569	-0.7216038228412898	0.0	0.8282953410668191	-0.8305968775033308	0.0	0.8734357488017962	-0.8408116101087467	0.0	0.86827330258677	-0.8380092522603432	0.0	0.8210910893684118	-0.8442778238198017	0.0	0.8318350832274892	-0.45321001731397903	0.0	0.8635086148273948	-0.38864635689084215	0.0	0.873933956727565	-0.4339115779819241	0.0	0.8114679247897839	-0.4695598398836776	0.0	0.7839992008095955	-0.5341560721177345	0.0	0.8366126024141761	-0.5867629597087463	0.0	0.8297795899200046	-0.4737088265870919	0.0	0.8105003649162998	-0.5423967159438052	0.0	0.8443663910254605	-0.5986486577205254	0.0
127	4.251120448179272	0.817174603144727	-0.6104804266798048	0.0	0.8104784830491615	-0.6091461281291989	0.0	0.81202775575681	-0.7173059829000792	0.0	0.8045255555185565	-0.8319996360247236	0.0	0.8570657607302714	-0.8393995053814773	0.0	0.845876258565853	-0.8441838985471125	0.0	0.7944304318898404	-0.8468081134702923	0.0	0.8262825634024202	-0.6083837557681272	0.0	0.8345015107044313	-0.7143427048753632	0.0	0.8285457028294749	-0.824274030227486	0.0	0.8732730208337671	-0.8346026044121191	0.0	0.867888748805589	-0.8319675510516777	0.0	0.8213366712527915	-0.8383010501570902	0.0	0.8321175797057175	-0.4468179868904196	0.0	0.8649443929489256	-0.38223187749590554	0.0	0.8745645237831646	-0.42751048930650204	0.0	0.8125337591730016	-0.4625571596089281	0.0	0.78596958321625	-0.5270925573213833	0.0	0.8410125064862416	-0.5772443493199891	0.0	0.8300835968037414	-0.46703182707623947	0.0	0.8113876943785998	-0.5366826491513644	0.0	0.8466990655819898	-0.5930284910325081	0.0
128	4.284593837535014	0.816351422967664	-0.6026203354272404	0.0	0.810307369994583	-0.6009435249494731	0.0	0.8120839636159161	-0.70941050710423	0.0	0.8038485013426839	-0.8260292837356085	0.0	0.8558169498340433	-0.8326979643631452	0.0	0.8448286513790392	-0.8383057577766826	0.0	0.7941015132585174	-0.8411671149658637	0.0	0.8256158238368002	-0.6002163010369935	0.0	0.8355712209992109	-0.7057774977232829	0.0	0.8288306177492821	-0.8166052949462436	0.0	0.873420981309079	-0.8272325769736055	0.0	0.8676913703947264	-0.8247016460847295	0.0	0.8216598187592011	-0.8310783683669557	0.0	0.8323273935442045	-0.4391302091449148	0.0	0.8667881320032923	-0.3746235776665087	0.0	0.8752838553384749	-0.42006648142004177	0.0	0.8138145861467214	-0.45407856970911104	0.0	0.7875374694601264	-0.5184816716349571	0.0	0.8443539481983385	-0.5672589466046657	0.0	0.8302760231634431	-0.4588371500651824	0.0	0.8115601213004292	-0.5292297848397762	0.0	0.8482927867391417	-0.5858639673609325	0.0
129	4.318067226890756	0.8156671908650771	-0.5942580648133085	0.0	0.8101407305586829	-0.5924102750352656	0.0	0.8123054510635845	-0.7011943021029815	0.0	0.803409592916577	-0.8195490372288211	0.0	0.8551169824189743	-0.8257404608392451	0.0	0.844091449827071	-0.8320257773607354	0.0	0.794014194301798	-0.8348659793556108	0.0	0.8249978587928228	-0.5917475266104557	0.0	0.8365744004076275	-0.6968456810208082	0.0	0.8291896085400648	-0.808423506710318	0.0	0.8739689242646197	-0.8195786466865937	0.0	0.8678514706976785	-0.8170479864301053	0.0	0.8220891798349422	-0.823347321733848	0.0	0.8324847582289606	-0.4308715675374917	0.0	0.8688005826256676	-0.3666462503825791	0.0	0.8759838880602228	-0.4123532646703838	0.0	0.8151969883365437	-0.4450350119361122	0.0	0.7887148715552357	-0.5091656264994365	0.0	0.8467214731501193	-0.5575902037881264	0.0	0.8303273044545176	-0.449883266984642	0.0	0.8110141056066883	-0.5207196654798687	0.0	0.8492032235356742	-0.5774863255791823	0.0
130	4.351540616246498	0.8151594136052759	-0.5861246142223411	0.0	0.8099938338676521	-0.5842634118284491	0.0	0.8125684542771795	-0.6934576224950361	0.0	0.8031543737258682	-0.813322167901395	0.0	0.854841036158761	-0.819350623258556	0.0	0.843627356172591	-0.8260895053642526	0.0	0.7940921441615316	-0.8286670363955116	0.0	0.8245036893451853	-0.5837269312814124	0.0	0.8373466736245614	-0.6884708515921235	0.0	0.8296270650589259	-0.8006401631845832	0.0	0.8748157620953109	-0.8125220323792759	0.0	0.8683675563002871	-0.8098708333637817	0.0	0.8226103675322322	-0.8159380804040178	0.0	0.8326630964899673	-0.42281299618774226	0.0	0.8708283454144781	-0.3590998396566002	0.0	0.8766253267958757	-0.40512196568560793	0.0	0.8165749303777979	-0.4363371070544851	0.0	0.7895771374209791	-0.5000826595737297	0.0	0.848297740440656	-0.5489600742720285	0.0	0.830264509981587	-0.44101061611992026	0.0	0.8099467648752154	-0.5120439837586463	0.0	0.8496740772732225	-0.5687532860879841	0.0
